<svg width="2440" height="784" viewBox="0 0 2440 784" fill="none" xmlns="http://www.w3.org/2000/svg">
<path d="M316.289 33.6579C386.118 33.6579 421.598 33.6301 449.816 42.2302C490.517 54.6343 522.966 79.5063 539.254 111.172C544.959 122.264 547.754 134.706 549.143 151.019C550.528 167.296 550.526 187.631 550.526 214.537V243.464C550.526 270.369 550.528 290.704 549.143 306.98C547.754 323.294 544.959 335.736 539.254 346.828C522.966 378.493 490.517 403.365 449.816 415.769C421.598 424.369 386.118 424.342 316.289 424.342H278.71C208.881 424.342 173.402 424.369 145.184 415.769C104.483 403.365 72.0335 378.493 55.7461 346.828C50.0408 335.736 47.2461 323.294 45.8574 306.98C44.4719 290.704 44.4736 270.369 44.4736 243.464V214.537C44.4736 187.631 44.4719 167.296 45.8574 151.019C47.2461 134.706 50.0408 122.264 55.7461 111.172C72.0336 79.5063 104.483 54.6343 145.184 42.2302C173.402 33.6302 208.882 33.6579 278.711 33.6579H316.289Z" fill="white" stroke="black" stroke-width="5"/>
<path d="M185.659 250H181.227L194.045 215.091H198.409L211.227 250H206.795L196.364 220.614H196.091L185.659 250ZM187.295 236.364H205.159V240.114H187.295V236.364ZM226.756 250.545C224.301 250.545 222.188 249.966 220.415 248.807C218.642 247.648 217.278 246.051 216.324 244.017C215.369 241.983 214.892 239.659 214.892 237.045C214.892 234.386 215.381 232.04 216.358 230.006C217.347 227.96 218.722 226.364 220.483 225.216C222.256 224.057 224.324 223.477 226.688 223.477C228.528 223.477 230.188 223.818 231.665 224.5C233.142 225.182 234.352 226.136 235.295 227.364C236.239 228.591 236.824 230.023 237.051 231.659H233.028C232.722 230.466 232.04 229.409 230.983 228.489C229.938 227.557 228.528 227.091 226.756 227.091C225.188 227.091 223.813 227.5 222.631 228.318C221.46 229.125 220.545 230.267 219.886 231.744C219.239 233.21 218.915 234.932 218.915 236.909C218.915 238.932 219.233 240.693 219.869 242.193C220.517 243.693 221.426 244.858 222.597 245.688C223.778 246.517 225.165 246.932 226.756 246.932C227.801 246.932 228.75 246.75 229.602 246.386C230.455 246.023 231.176 245.5 231.767 244.818C232.358 244.136 232.778 243.318 233.028 242.364H237.051C236.824 243.909 236.261 245.301 235.364 246.54C234.477 247.767 233.301 248.744 231.835 249.472C230.381 250.188 228.688 250.545 226.756 250.545ZM260.795 259.818V245.977H260.455C260.159 246.455 259.739 247.057 259.193 247.784C258.648 248.5 257.869 249.142 256.858 249.71C255.847 250.267 254.5 250.545 252.818 250.545C250.636 250.545 248.71 249.994 247.04 248.892C245.369 247.778 244.063 246.21 243.119 244.188C242.176 242.153 241.705 239.75 241.705 236.977C241.705 234.227 242.176 231.841 243.119 229.818C244.063 227.795 245.375 226.233 247.057 225.131C248.739 224.028 250.682 223.477 252.886 223.477C254.591 223.477 255.938 223.761 256.926 224.33C257.926 224.886 258.688 225.523 259.21 226.239C259.744 226.943 260.159 227.523 260.455 227.977H260.932V223.818H264.818V259.818H260.795ZM253.364 246.932C254.977 246.932 256.341 246.511 257.455 245.67C258.568 244.818 259.415 243.642 259.994 242.142C260.574 240.631 260.864 238.886 260.864 236.909C260.864 234.955 260.58 233.244 260.011 231.778C259.443 230.301 258.602 229.153 257.489 228.335C256.375 227.506 255 227.091 253.364 227.091C251.659 227.091 250.239 227.528 249.102 228.403C247.977 229.267 247.131 230.443 246.562 231.932C246.006 233.409 245.727 235.068 245.727 236.909C245.727 238.773 246.011 240.466 246.58 241.989C247.159 243.5 248.011 244.705 249.136 245.602C250.273 246.489 251.682 246.932 253.364 246.932ZM288.682 239.295V223.818H292.705V250H288.682V245.568H288.409C287.795 246.898 286.841 248.028 285.545 248.96C284.25 249.881 282.614 250.341 280.636 250.341C279 250.341 277.545 249.983 276.273 249.267C275 248.54 274 247.449 273.273 245.994C272.545 244.528 272.182 242.682 272.182 240.455V223.818H276.205V240.182C276.205 242.091 276.739 243.614 277.807 244.75C278.886 245.886 280.261 246.455 281.932 246.455C282.932 246.455 283.949 246.199 284.983 245.688C286.028 245.176 286.903 244.392 287.608 243.335C288.324 242.278 288.682 240.932 288.682 239.295ZM300.072 250V223.818H304.095V250H300.072ZM302.118 219.455C301.334 219.455 300.658 219.188 300.089 218.653C299.533 218.119 299.254 217.477 299.254 216.727C299.254 215.977 299.533 215.335 300.089 214.801C300.658 214.267 301.334 214 302.118 214C302.902 214 303.572 214.267 304.129 214.801C304.697 215.335 304.982 215.977 304.982 216.727C304.982 217.477 304.697 218.119 304.129 218.653C303.572 219.188 302.902 219.455 302.118 219.455ZM330.009 229.682L326.395 230.705C326.168 230.102 325.832 229.517 325.389 228.949C324.957 228.369 324.366 227.892 323.616 227.517C322.866 227.142 321.906 226.955 320.736 226.955C319.134 226.955 317.798 227.324 316.73 228.062C315.673 228.79 315.145 229.716 315.145 230.841C315.145 231.841 315.509 232.631 316.236 233.21C316.963 233.79 318.099 234.273 319.645 234.659L323.531 235.614C325.872 236.182 327.616 237.051 328.764 238.222C329.912 239.381 330.486 240.875 330.486 242.705C330.486 244.205 330.054 245.545 329.19 246.727C328.338 247.909 327.145 248.841 325.611 249.523C324.077 250.205 322.293 250.545 320.259 250.545C317.588 250.545 315.378 249.966 313.628 248.807C311.878 247.648 310.77 245.955 310.304 243.727L314.122 242.773C314.486 244.182 315.173 245.239 316.185 245.943C317.207 246.648 318.543 247 320.19 247C322.065 247 323.554 246.602 324.656 245.807C325.77 245 326.327 244.034 326.327 242.909C326.327 242 326.009 241.239 325.372 240.625C324.736 240 323.759 239.534 322.44 239.227L318.077 238.205C315.679 237.636 313.918 236.756 312.793 235.562C311.679 234.358 311.122 232.852 311.122 231.045C311.122 229.568 311.537 228.261 312.366 227.125C313.207 225.989 314.349 225.097 315.793 224.449C317.247 223.801 318.895 223.477 320.736 223.477C323.327 223.477 325.361 224.045 326.838 225.182C328.327 226.318 329.384 227.818 330.009 229.682ZM336.541 250V223.818H340.564V250H336.541ZM338.587 219.455C337.803 219.455 337.126 219.188 336.558 218.653C336.001 218.119 335.723 217.477 335.723 216.727C335.723 215.977 336.001 215.335 336.558 214.801C337.126 214.267 337.803 214 338.587 214C339.371 214 340.041 214.267 340.598 214.801C341.166 215.335 341.45 215.977 341.45 216.727C341.45 217.477 341.166 218.119 340.598 218.653C340.041 219.188 339.371 219.455 338.587 219.455ZM359.318 223.818V227.227H345.75V223.818H359.318ZM349.705 217.545H353.727V242.5C353.727 243.636 353.892 244.489 354.222 245.057C354.563 245.614 354.994 245.989 355.517 246.182C356.051 246.364 356.614 246.455 357.205 246.455C357.648 246.455 358.011 246.432 358.295 246.386C358.58 246.33 358.807 246.284 358.977 246.25L359.795 249.864C359.523 249.966 359.142 250.068 358.653 250.17C358.165 250.284 357.545 250.341 356.795 250.341C355.659 250.341 354.545 250.097 353.455 249.608C352.375 249.119 351.477 248.375 350.761 247.375C350.057 246.375 349.705 245.114 349.705 243.591V217.545ZM365.369 250V223.818H369.392V250H365.369ZM367.415 219.455C366.631 219.455 365.955 219.188 365.386 218.653C364.83 218.119 364.551 217.477 364.551 216.727C364.551 215.977 364.83 215.335 365.386 214.801C365.955 214.267 366.631 214 367.415 214C368.199 214 368.869 214.267 369.426 214.801C369.994 215.335 370.278 215.977 370.278 216.727C370.278 217.477 369.994 218.119 369.426 218.653C368.869 219.188 368.199 219.455 367.415 219.455ZM387.396 250.545C385.033 250.545 382.959 249.983 381.175 248.858C379.402 247.733 378.016 246.159 377.016 244.136C376.027 242.114 375.533 239.75 375.533 237.045C375.533 234.318 376.027 231.937 377.016 229.903C378.016 227.869 379.402 226.29 381.175 225.165C382.959 224.04 385.033 223.477 387.396 223.477C389.76 223.477 391.828 224.04 393.601 225.165C395.385 226.29 396.771 227.869 397.76 229.903C398.76 231.937 399.26 234.318 399.26 237.045C399.26 239.75 398.76 242.114 397.76 244.136C396.771 246.159 395.385 247.733 393.601 248.858C391.828 249.983 389.76 250.545 387.396 250.545ZM387.396 246.932C389.192 246.932 390.669 246.472 391.828 245.551C392.987 244.631 393.845 243.42 394.402 241.92C394.959 240.42 395.237 238.795 395.237 237.045C395.237 235.295 394.959 233.665 394.402 232.153C393.845 230.642 392.987 229.42 391.828 228.489C390.669 227.557 389.192 227.091 387.396 227.091C385.601 227.091 384.124 227.557 382.964 228.489C381.805 229.42 380.947 230.642 380.391 232.153C379.834 233.665 379.555 235.295 379.555 237.045C379.555 238.795 379.834 240.42 380.391 241.92C380.947 243.42 381.805 244.631 382.964 245.551C384.124 246.472 385.601 246.932 387.396 246.932ZM409.423 234.25V250H405.401V223.818H409.287V227.909H409.628C410.241 226.58 411.173 225.511 412.423 224.705C413.673 223.886 415.287 223.477 417.264 223.477C419.037 223.477 420.588 223.841 421.918 224.568C423.247 225.284 424.281 226.375 425.02 227.841C425.759 229.295 426.128 231.136 426.128 233.364V250H422.105V233.636C422.105 231.58 421.571 229.977 420.503 228.83C419.435 227.67 417.969 227.091 416.105 227.091C414.821 227.091 413.673 227.369 412.662 227.926C411.662 228.483 410.872 229.295 410.293 230.364C409.713 231.432 409.423 232.727 409.423 234.25Z" fill="black"/>
<path d="M996.289 33.6579C1066.12 33.6579 1101.6 33.6301 1129.82 42.2302C1170.52 54.6343 1202.97 79.5063 1219.25 111.172C1224.96 122.264 1227.75 134.706 1229.14 151.019C1230.53 167.296 1230.53 187.631 1230.53 214.537V243.464C1230.53 270.369 1230.53 290.704 1229.14 306.98C1227.75 323.294 1224.96 335.736 1219.25 346.828C1202.97 378.493 1170.52 403.365 1129.82 415.769C1101.6 424.369 1066.12 424.342 996.289 424.342H958.71C888.881 424.342 853.402 424.369 825.184 415.769C784.483 403.365 752.034 378.493 735.746 346.828C730.041 335.736 727.246 323.294 725.857 306.98C724.472 290.704 724.474 270.369 724.474 243.464V214.537C724.474 187.631 724.472 167.296 725.857 151.019C727.246 134.706 730.041 122.264 735.746 111.172C752.034 79.5063 784.483 54.6343 825.184 42.2302C853.402 33.6302 888.882 33.6579 958.711 33.6579H996.289Z" fill="white" stroke="black" stroke-width="5"/>
<path d="M922.682 232.545C922.682 236.227 922.017 239.409 920.688 242.091C919.358 244.773 917.534 246.841 915.216 248.295C912.898 249.75 910.25 250.477 907.273 250.477C904.295 250.477 901.648 249.75 899.33 248.295C897.011 246.841 895.188 244.773 893.858 242.091C892.528 239.409 891.864 236.227 891.864 232.545C891.864 228.864 892.528 225.682 893.858 223C895.188 220.318 897.011 218.25 899.33 216.795C901.648 215.341 904.295 214.614 907.273 214.614C910.25 214.614 912.898 215.341 915.216 216.795C917.534 218.25 919.358 220.318 920.688 223C922.017 225.682 922.682 228.864 922.682 232.545ZM918.591 232.545C918.591 229.523 918.085 226.972 917.074 224.892C916.074 222.812 914.716 221.239 913 220.17C911.295 219.102 909.386 218.568 907.273 218.568C905.159 218.568 903.244 219.102 901.528 220.17C899.824 221.239 898.466 222.812 897.455 224.892C896.455 226.972 895.955 229.523 895.955 232.545C895.955 235.568 896.455 238.119 897.455 240.199C898.466 242.278 899.824 243.852 901.528 244.92C903.244 245.989 905.159 246.523 907.273 246.523C909.386 246.523 911.295 245.989 913 244.92C914.716 243.852 916.074 242.278 917.074 240.199C918.085 238.119 918.591 235.568 918.591 232.545ZM933.267 234.25V250H929.244V223.818H933.131V227.909H933.472C934.085 226.58 935.017 225.511 936.267 224.705C937.517 223.886 939.131 223.477 941.108 223.477C942.881 223.477 944.432 223.841 945.761 224.568C947.091 225.284 948.125 226.375 948.864 227.841C949.602 229.295 949.972 231.136 949.972 233.364V250H945.949V233.636C945.949 231.58 945.415 229.977 944.347 228.83C943.278 227.67 941.813 227.091 939.949 227.091C938.665 227.091 937.517 227.369 936.506 227.926C935.506 228.483 934.716 229.295 934.136 230.364C933.557 231.432 933.267 232.727 933.267 234.25ZM957.868 250V215.091H961.891V227.977H962.232C962.527 227.523 962.936 226.943 963.459 226.239C963.993 225.523 964.754 224.886 965.743 224.33C966.743 223.761 968.095 223.477 969.8 223.477C972.004 223.477 973.947 224.028 975.629 225.131C977.311 226.233 978.624 227.795 979.567 229.818C980.51 231.841 980.982 234.227 980.982 236.977C980.982 239.75 980.51 242.153 979.567 244.188C978.624 246.21 977.317 247.778 975.646 248.892C973.976 249.994 972.05 250.545 969.868 250.545C968.186 250.545 966.839 250.267 965.828 249.71C964.817 249.142 964.038 248.5 963.493 247.784C962.947 247.057 962.527 246.455 962.232 245.977H961.754V250H957.868ZM961.822 236.909C961.822 238.886 962.112 240.631 962.692 242.142C963.271 243.642 964.118 244.818 965.232 245.67C966.345 246.511 967.709 246.932 969.322 246.932C971.004 246.932 972.408 246.489 973.533 245.602C974.669 244.705 975.521 243.5 976.089 241.989C976.669 240.466 976.959 238.773 976.959 236.909C976.959 235.068 976.675 233.409 976.107 231.932C975.55 230.443 974.703 229.267 973.567 228.403C972.442 227.528 971.027 227.091 969.322 227.091C967.686 227.091 966.311 227.506 965.197 228.335C964.084 229.153 963.243 230.301 962.675 231.778C962.107 233.244 961.822 234.955 961.822 236.909ZM997.771 250.545C995.408 250.545 993.334 249.983 991.55 248.858C989.777 247.733 988.391 246.159 987.391 244.136C986.402 242.114 985.908 239.75 985.908 237.045C985.908 234.318 986.402 231.937 987.391 229.903C988.391 227.869 989.777 226.29 991.55 225.165C993.334 224.04 995.408 223.477 997.771 223.477C1000.13 223.477 1002.2 224.04 1003.98 225.165C1005.76 226.29 1007.15 227.869 1008.13 229.903C1009.13 231.937 1009.63 234.318 1009.63 237.045C1009.63 239.75 1009.13 242.114 1008.13 244.136C1007.15 246.159 1005.76 247.733 1003.98 248.858C1002.2 249.983 1000.13 250.545 997.771 250.545ZM997.771 246.932C999.567 246.932 1001.04 246.472 1002.2 245.551C1003.36 244.631 1004.22 243.42 1004.78 241.92C1005.33 240.42 1005.61 238.795 1005.61 237.045C1005.61 235.295 1005.33 233.665 1004.78 232.153C1004.22 230.642 1003.36 229.42 1002.2 228.489C1001.04 227.557 999.567 227.091 997.771 227.091C995.976 227.091 994.499 227.557 993.339 228.489C992.18 229.42 991.322 230.642 990.766 232.153C990.209 233.665 989.93 235.295 989.93 237.045C989.93 238.795 990.209 240.42 990.766 241.92C991.322 243.42 992.18 244.631 993.339 245.551C994.499 246.472 995.976 246.932 997.771 246.932ZM1023.48 250.614C1021.82 250.614 1020.32 250.301 1018.96 249.676C1017.61 249.04 1016.54 248.125 1015.74 246.932C1014.95 245.727 1014.55 244.273 1014.55 242.568C1014.55 241.068 1014.84 239.852 1015.43 238.92C1016.03 237.977 1016.82 237.239 1017.8 236.705C1018.79 236.17 1019.88 235.773 1021.08 235.511C1022.28 235.239 1023.49 235.023 1024.71 234.864C1026.3 234.659 1027.59 234.506 1028.58 234.403C1029.58 234.29 1030.3 234.102 1030.76 233.841C1031.22 233.58 1031.46 233.125 1031.46 232.477V232.341C1031.46 230.659 1031 229.352 1030.08 228.42C1029.17 227.489 1027.79 227.023 1025.93 227.023C1024.01 227.023 1022.51 227.443 1021.42 228.284C1020.33 229.125 1019.56 230.023 1019.12 230.977L1015.3 229.614C1015.98 228.023 1016.89 226.784 1018.03 225.898C1019.17 225 1020.42 224.375 1021.78 224.023C1023.14 223.659 1024.48 223.477 1025.8 223.477C1026.64 223.477 1027.61 223.58 1028.7 223.784C1029.8 223.977 1030.86 224.381 1031.88 224.994C1032.92 225.608 1033.78 226.534 1034.46 227.773C1035.14 229.011 1035.48 230.67 1035.48 232.75V250H1031.46V246.455H1031.25C1030.98 247.023 1030.53 247.631 1029.89 248.278C1029.25 248.926 1028.41 249.477 1027.35 249.932C1026.29 250.386 1025 250.614 1023.48 250.614ZM1024.09 247C1025.68 247 1027.03 246.688 1028.12 246.062C1029.22 245.438 1030.05 244.631 1030.61 243.642C1031.17 242.653 1031.46 241.614 1031.46 240.523V236.841C1031.29 237.045 1030.91 237.233 1030.33 237.403C1029.76 237.562 1029.11 237.705 1028.36 237.83C1027.62 237.943 1026.89 238.045 1026.19 238.136C1025.5 238.216 1024.93 238.284 1024.5 238.341C1023.46 238.477 1022.48 238.699 1021.57 239.006C1020.67 239.301 1019.95 239.75 1019.39 240.352C1018.84 240.943 1018.57 241.75 1018.57 242.773C1018.57 244.17 1019.09 245.227 1020.12 245.943C1021.17 246.648 1022.49 247 1024.09 247ZM1042.82 250V223.818H1046.71V227.773H1046.98C1047.46 226.477 1048.32 225.426 1049.57 224.619C1050.82 223.812 1052.23 223.409 1053.8 223.409C1054.1 223.409 1054.46 223.415 1054.91 223.426C1055.35 223.437 1055.69 223.455 1055.91 223.477V227.568C1055.78 227.534 1055.46 227.483 1054.98 227.415C1054.5 227.335 1053.99 227.295 1053.46 227.295C1052.19 227.295 1051.05 227.562 1050.05 228.097C1049.06 228.619 1048.28 229.347 1047.7 230.278C1047.13 231.199 1046.85 232.25 1046.85 233.432V250H1042.82ZM1069.77 250.545C1067.59 250.545 1065.66 249.994 1063.99 248.892C1062.32 247.778 1061.02 246.21 1060.07 244.188C1059.13 242.153 1058.66 239.75 1058.66 236.977C1058.66 234.227 1059.13 231.841 1060.07 229.818C1061.02 227.795 1062.33 226.233 1064.01 225.131C1065.69 224.028 1067.63 223.477 1069.84 223.477C1071.54 223.477 1072.89 223.761 1073.88 224.33C1074.88 224.886 1075.64 225.523 1076.16 226.239C1076.7 226.943 1077.11 227.523 1077.41 227.977H1077.75V215.091H1081.77V250H1077.88V245.977H1077.41C1077.11 246.455 1076.69 247.057 1076.15 247.784C1075.6 248.5 1074.82 249.142 1073.81 249.71C1072.8 250.267 1071.45 250.545 1069.77 250.545ZM1070.32 246.932C1071.93 246.932 1073.29 246.511 1074.41 245.67C1075.52 244.818 1076.37 243.642 1076.95 242.142C1077.53 240.631 1077.82 238.886 1077.82 236.909C1077.82 234.955 1077.53 233.244 1076.96 231.778C1076.4 230.301 1075.56 229.153 1074.44 228.335C1073.33 227.506 1071.95 227.091 1070.32 227.091C1068.61 227.091 1067.19 227.528 1066.06 228.403C1064.93 229.267 1064.08 230.443 1063.52 231.932C1062.96 233.409 1062.68 235.068 1062.68 236.909C1062.68 238.773 1062.96 240.466 1063.53 241.989C1064.11 243.5 1064.96 244.705 1066.09 245.602C1067.23 246.489 1068.63 246.932 1070.32 246.932Z" fill="black"/>
<path d="M1676.29 54.6579C1746.12 54.6579 1781.6 54.6301 1809.82 63.2302C1850.52 75.6343 1882.97 100.506 1899.25 132.172C1904.96 143.264 1907.75 155.706 1909.14 172.019C1910.53 188.296 1910.53 208.631 1910.53 235.537V264.464C1910.53 291.369 1910.53 311.704 1909.14 327.98C1907.75 344.294 1904.96 356.736 1899.25 367.828C1882.97 399.493 1850.52 424.365 1809.82 436.769C1781.6 445.369 1746.12 445.342 1676.29 445.342H1638.71C1568.88 445.342 1533.4 445.369 1505.18 436.769C1464.48 424.365 1432.03 399.493 1415.75 367.828C1410.04 356.736 1407.25 344.294 1405.86 327.98C1404.47 311.704 1404.47 291.369 1404.47 264.464V235.537C1404.47 208.631 1404.47 188.296 1405.86 172.019C1407.25 155.706 1410.04 143.264 1415.75 132.172C1432.03 100.506 1464.48 75.6343 1505.18 63.2302C1533.4 54.6302 1568.88 54.6579 1638.71 54.6579H1676.29Z" fill="white" stroke="black" stroke-width="5"/>
<path d="M1570.23 250V215.091H1582.02C1584.75 215.091 1586.99 215.557 1588.74 216.489C1590.49 217.409 1591.78 218.676 1592.62 220.29C1593.47 221.903 1593.89 223.739 1593.89 225.795C1593.89 227.852 1593.47 229.676 1592.62 231.267C1591.78 232.858 1590.49 234.108 1588.76 235.017C1587.02 235.915 1584.8 236.364 1582.09 236.364H1572.55V232.545H1581.95C1583.82 232.545 1585.32 232.273 1586.45 231.727C1587.6 231.182 1588.43 230.409 1588.94 229.409C1589.47 228.398 1589.73 227.193 1589.73 225.795C1589.73 224.398 1589.47 223.176 1588.94 222.131C1588.42 221.085 1587.59 220.278 1586.44 219.71C1585.29 219.131 1583.77 218.841 1581.89 218.841H1574.45V250H1570.23ZM1586.66 234.318L1595.25 250H1590.34L1581.89 234.318H1586.66ZM1611.08 250.545C1608.56 250.545 1606.38 249.989 1604.55 248.875C1602.73 247.75 1601.33 246.182 1600.34 244.17C1599.37 242.148 1598.88 239.795 1598.88 237.114C1598.88 234.432 1599.37 232.068 1600.34 230.023C1601.33 227.966 1602.71 226.364 1604.47 225.216C1606.24 224.057 1608.31 223.477 1610.67 223.477C1612.04 223.477 1613.38 223.705 1614.71 224.159C1616.04 224.614 1617.25 225.352 1618.34 226.375C1619.43 227.386 1620.3 228.727 1620.95 230.398C1621.6 232.068 1621.92 234.125 1621.92 236.568V238.273H1601.74V234.795H1617.83C1617.83 233.318 1617.54 232 1616.94 230.841C1616.37 229.682 1615.54 228.767 1614.46 228.097C1613.39 227.426 1612.13 227.091 1610.67 227.091C1609.07 227.091 1607.68 227.489 1606.51 228.284C1605.35 229.068 1604.46 230.091 1603.84 231.352C1603.21 232.614 1602.9 233.966 1602.9 235.409V237.727C1602.9 239.705 1603.24 241.381 1603.92 242.756C1604.62 244.119 1605.58 245.159 1606.8 245.875C1608.03 246.58 1609.46 246.932 1611.08 246.932C1612.14 246.932 1613.09 246.784 1613.94 246.489C1614.81 246.182 1615.55 245.727 1616.18 245.125C1616.8 244.511 1617.29 243.75 1617.63 242.841L1621.51 243.932C1621.1 245.25 1620.42 246.409 1619.45 247.409C1618.48 248.398 1617.29 249.17 1615.87 249.727C1614.45 250.273 1612.85 250.545 1611.08 250.545ZM1639.43 223.818V227.227H1625.86V223.818H1639.43ZM1629.81 217.545H1633.84V242.5C1633.84 243.636 1634 244.489 1634.33 245.057C1634.67 245.614 1635.1 245.989 1635.63 246.182C1636.16 246.364 1636.72 246.455 1637.31 246.455C1637.76 246.455 1638.12 246.432 1638.4 246.386C1638.69 246.33 1638.92 246.284 1639.09 246.25L1639.9 249.864C1639.63 249.966 1639.25 250.068 1638.76 250.17C1638.27 250.284 1637.65 250.341 1636.9 250.341C1635.77 250.341 1634.65 250.097 1633.56 249.608C1632.48 249.119 1631.59 248.375 1630.87 247.375C1630.17 246.375 1629.81 245.114 1629.81 243.591V217.545ZM1653.18 250.614C1651.52 250.614 1650.02 250.301 1648.67 249.676C1647.31 249.04 1646.24 248.125 1645.44 246.932C1644.65 245.727 1644.25 244.273 1644.25 242.568C1644.25 241.068 1644.55 239.852 1645.14 238.92C1645.73 237.977 1646.52 237.239 1647.51 236.705C1648.5 236.17 1649.59 235.773 1650.78 235.511C1651.98 235.239 1653.19 235.023 1654.41 234.864C1656 234.659 1657.29 234.506 1658.28 234.403C1659.28 234.29 1660.01 234.102 1660.46 233.841C1660.93 233.58 1661.16 233.125 1661.16 232.477V232.341C1661.16 230.659 1660.7 229.352 1659.78 228.42C1658.87 227.489 1657.49 227.023 1655.64 227.023C1653.72 227.023 1652.21 227.443 1651.12 228.284C1650.03 229.125 1649.26 230.023 1648.82 230.977L1645 229.614C1645.68 228.023 1646.59 226.784 1647.73 225.898C1648.88 225 1650.13 224.375 1651.48 224.023C1652.84 223.659 1654.18 223.477 1655.5 223.477C1656.34 223.477 1657.31 223.58 1658.4 223.784C1659.5 223.977 1660.56 224.381 1661.59 224.994C1662.62 225.608 1663.48 226.534 1664.16 227.773C1664.84 229.011 1665.18 230.67 1665.18 232.75V250H1661.16V246.455H1660.96C1660.68 247.023 1660.23 247.631 1659.59 248.278C1658.96 248.926 1658.11 249.477 1657.05 249.932C1656 250.386 1654.71 250.614 1653.18 250.614ZM1653.8 247C1655.39 247 1656.73 246.688 1657.82 246.062C1658.92 245.438 1659.75 244.631 1660.31 243.642C1660.88 242.653 1661.16 241.614 1661.16 240.523V236.841C1660.99 237.045 1660.62 237.233 1660.04 237.403C1659.47 237.562 1658.81 237.705 1658.06 237.83C1657.32 237.943 1656.6 238.045 1655.89 238.136C1655.2 238.216 1654.64 238.284 1654.21 238.341C1653.16 238.477 1652.18 238.699 1651.27 239.006C1650.38 239.301 1649.65 239.75 1649.09 240.352C1648.55 240.943 1648.27 241.75 1648.27 242.773C1648.27 244.17 1648.79 245.227 1649.83 245.943C1650.87 246.648 1652.19 247 1653.8 247ZM1672.53 250V223.818H1676.55V250H1672.53ZM1674.57 219.455C1673.79 219.455 1673.11 219.188 1672.54 218.653C1671.99 218.119 1671.71 217.477 1671.71 216.727C1671.71 215.977 1671.99 215.335 1672.54 214.801C1673.11 214.267 1673.79 214 1674.57 214C1675.36 214 1676.03 214.267 1676.58 214.801C1677.15 215.335 1677.43 215.977 1677.43 216.727C1677.43 217.477 1677.15 218.119 1676.58 218.653C1676.03 219.188 1675.36 219.455 1674.57 219.455ZM1687.94 234.25V250H1683.92V223.818H1687.8V227.909H1688.14C1688.76 226.58 1689.69 225.511 1690.94 224.705C1692.19 223.886 1693.8 223.477 1695.78 223.477C1697.55 223.477 1699.1 223.841 1700.43 224.568C1701.76 225.284 1702.8 226.375 1703.54 227.841C1704.27 229.295 1704.64 231.136 1704.64 233.364V250H1700.62V233.636C1700.62 231.58 1700.09 229.977 1699.02 228.83C1697.95 227.67 1696.48 227.091 1694.62 227.091C1693.34 227.091 1692.19 227.369 1691.18 227.926C1690.18 228.483 1689.39 229.295 1688.81 230.364C1688.23 231.432 1687.94 232.727 1687.94 234.25Z" fill="black"/>
<path d="M604.167 229H671.833M671.833 229L638 190.5M671.833 229L638 267.5" stroke="#1E1E1E" stroke-width="4" stroke-linecap="round" stroke-linejoin="round"/>
<path d="M1299.17 229H1366.83M1366.83 229L1333 190.5M1366.83 229L1333 267.5" stroke="#1E1E1E" stroke-width="4" stroke-linecap="round" stroke-linejoin="round"/>
</svg>
